<svg width="74" height="74" viewBox="0 0 74 74" fill="none" xmlns="http://www.w3.org/2000/svg">
<rect y="-0.00012207" width="73.7991" height="73.7991" rx="30" fill="url(#paint0_linear_208_131)"/>
<g filter="url(#filter0_i_208_131)">
<path fill-rule="evenodd" clip-rule="evenodd" d="M37 17.9976C25.95 17.9976 17 26.912 17 37.918C17 46.7328 22.725 54.1781 30.675 56.8175C31.675 56.9918 32.05 56.3942 32.05 55.8713C32.05 55.3982 32.025 53.8295 32.025 52.1611C27 53.0825 25.7 50.941 25.3 49.8205C25.075 49.2478 24.1 47.4798 23.25 47.0067C22.55 46.6332 21.55 45.7119 23.225 45.687C24.8 45.6621 25.925 47.1312 26.3 47.7288C28.1 50.7418 30.975 49.8952 32.125 49.3723C32.3 48.0774 32.825 47.2059 33.4 46.7079C28.95 46.2099 24.3 44.4918 24.3 36.8722C24.3 34.7058 25.075 32.913 26.35 31.5186C26.15 31.0206 25.45 28.9787 26.55 26.2396C26.55 26.2396 28.225 25.7167 32.05 28.2815C33.65 27.8333 35.35 27.6092 37.05 27.6092C38.75 27.6092 40.45 27.8333 42.05 28.2815C45.875 25.6918 47.55 26.2396 47.55 26.2396C48.65 28.9787 47.95 31.0206 47.75 31.5186C49.025 32.913 49.8 34.6809 49.8 36.8722C49.8 44.5167 45.125 46.2099 40.675 46.7079C41.4 47.3304 42.025 48.5257 42.025 50.3932C42.025 53.0576 42 55.199 42 55.8713C42 56.3942 42.375 57.0167 43.375 56.8175C51.275 54.1781 57 46.7079 57 37.918C57 26.912 48.05 17.9976 37 17.9976Z" fill="white"/>
</g>
<defs>
<filter id="filter0_i_208_131" x="14" y="15" width="45" height="45.5" filterUnits="userSpaceOnUse" color-interpolation-filters="sRGB">
<feFlood flood-opacity="0" result="BackgroundImageFix"/>
<feBlend mode="normal" in="SourceGraphic" in2="BackgroundImageFix" result="shape"/>
<feColorMatrix in="SourceAlpha" type="matrix" values="0 0 0 0 0 0 0 0 0 0 0 0 0 0 0 0 0 0 127 0" result="hardAlpha"/>
<feOffset dy="0.5"/>
<feGaussianBlur stdDeviation="1.25"/>
<feComposite in2="hardAlpha" operator="arithmetic" k2="-1" k3="1"/>
<feColorMatrix type="matrix" values="0 0 0 0 0 0 0 0 0 0 0 0 0 0 0 0 0 0 0.1 0"/>
<feBlend mode="normal" in2="shape" result="effect1_innerShadow_208_131"/>
</filter>
<linearGradient id="paint0_linear_208_131" x1="42" y1="75.9999" x2="7.5" y2="-0.000123651" gradientUnits="userSpaceOnUse">
<stop offset="0.0729167" stop-color="#1B1F23"/>
<stop offset="0.973958" stop-color="#363C42"/>
</linearGradient>
</defs>
</svg>
