<svg width="74" height="74" viewBox="0 0 74 74" fill="none" xmlns="http://www.w3.org/2000/svg">
<rect y="-0.00012207" width="73.7991" height="73.7991" rx="30" fill="url(#paint0_linear_208_132)"/>
<g filter="url(#filter0_i_208_132)">
<path d="M19.7273 51.0076H26.0909V35.553L17 28.7349V48.2803C17 49.7894 18.2227 51.0076 19.7273 51.0076Z" fill="#4285F4"/>
<path d="M47.9091 51.0076H54.2727C55.7818 51.0076 57 49.7849 57 48.2803V28.7349L47.9091 35.553" fill="#34A853"/>
<path d="M47.9091 23.735V35.5532L57 28.735V25.0986C57 21.7259 53.15 19.8032 50.4545 21.8259" fill="#FBBC04"/>
<path d="M26.0909 35.553V23.7349L37 31.9167L47.9091 23.7349V35.553L37 43.7349" fill="#EA4335"/>
<path d="M17 25.0986V28.735L26.0909 35.5532V23.735L23.5455 21.8259C20.8455 19.8032 17 21.7259 17 25.0986Z" fill="#C5221F"/>
</g>
<defs>
<filter id="filter0_i_208_132" x="14" y="14" width="45" height="45.5" filterUnits="userSpaceOnUse" color-interpolation-filters="sRGB">
<feFlood flood-opacity="0" result="BackgroundImageFix"/>
<feBlend mode="normal" in="SourceGraphic" in2="BackgroundImageFix" result="shape"/>
<feColorMatrix in="SourceAlpha" type="matrix" values="0 0 0 0 0 0 0 0 0 0 0 0 0 0 0 0 0 0 127 0" result="hardAlpha"/>
<feOffset dy="0.5"/>
<feGaussianBlur stdDeviation="1.25"/>
<feComposite in2="hardAlpha" operator="arithmetic" k2="-1" k3="1"/>
<feColorMatrix type="matrix" values="0 0 0 0 0 0 0 0 0 0 0 0 0 0 0 0 0 0 0.1 0"/>
<feBlend mode="normal" in2="shape" result="effect1_innerShadow_208_132"/>
</filter>
<linearGradient id="paint0_linear_208_132" x1="42" y1="75.9999" x2="7.5" y2="-0.000123651" gradientUnits="userSpaceOnUse">
<stop/>
<stop offset="1" stop-color="#323232"/>
</linearGradient>
</defs>
</svg>
