<svg width="74" height="74" viewBox="0 0 74 74" fill="none" xmlns="http://www.w3.org/2000/svg">
<rect y="-0.00012207" width="73.7991" height="73.7991" rx="30" fill="url(#paint0_linear_208_54)"/>
<g clip-path="url(#clip0_208_54)" filter="url(#filter0_i_208_54)">
<g filter="url(#filter1_i_208_54)">
<path d="M51.2276 57.8203C54.2522 56.6517 56.6434 54.2605 57.812 51.2358C58.3652 49.8031 58.7524 48.1684 58.8576 45.7772C58.8824 45.217 58.9018 44.7468 58.9198 44.2752V28.2988C58.9073 27.9655 58.8935 27.6184 58.8755 27.2284C58.7704 24.8372 58.3832 23.1942 57.83 21.7697C57.2588 20.2581 56.3792 18.9041 55.2286 17.7797C54.1028 16.636 52.7406 15.7481 51.2455 15.1866C49.8127 14.6334 48.178 14.2462 45.7868 14.1411C43.3776 14.0263 42.6129 14 36.5041 14C30.3954 14 29.6293 14.0263 27.2298 14.1314C24.8386 14.2365 23.1956 14.6237 21.7711 15.1769C20.2594 15.7481 18.9055 16.6277 17.7797 17.7797C16.6374 18.9055 15.7495 20.2678 15.1866 21.7614C14.6334 23.1942 14.2462 24.8289 14.1411 27.2201C14.0263 29.6293 14 30.3941 14 36.5042C14 42.6142 14.0263 43.379 14.1314 45.7785C14.2365 48.1697 14.6237 49.8141 15.1783 51.2372C15.7495 52.7488 16.6374 54.1028 17.7797 55.2286C18.9055 56.3709 20.2677 57.2602 21.7628 57.8217C23.1956 58.3749 24.8303 58.7621 27.2215 58.8672C29.621 58.9737 30.3858 59 36.4958 59C42.6059 59 43.3694 58.9737 45.7702 58.8672C48.1614 58.7621 49.8045 58.3749 51.2289 57.8217L51.2276 57.8203ZM36.5124 54.9547C30.5075 54.9547 29.7869 54.9285 27.422 54.8233C25.2244 54.7265 24.0378 54.3573 23.2467 54.0503C22.2717 53.6893 21.3838 53.1181 20.6619 52.3713C19.9151 51.6411 19.3425 50.7629 18.9829 49.7865C18.6759 48.9954 18.3067 47.7991 18.2098 45.6112C18.1047 43.238 18.0785 42.5257 18.0785 36.5208C18.0785 30.5158 18.1047 29.7952 18.2098 27.4317C18.3067 25.2341 18.6759 24.0475 18.9829 23.2564C19.3439 22.28 19.9151 21.3921 20.6716 20.6716C21.4004 19.9248 22.28 19.3536 23.255 18.9926C24.0461 18.6856 25.2424 18.3163 27.4303 18.2195C29.8035 18.1144 30.5158 18.0881 36.5194 18.0881C42.523 18.0881 43.2449 18.1144 45.6098 18.2195C47.8074 18.3163 48.994 18.6856 49.7851 18.9926C50.7601 19.3536 51.648 19.9248 52.3685 20.6716C53.1153 21.4018 53.6879 22.28 54.0475 23.2564C54.3545 24.0475 54.7238 25.2424 54.8206 27.4317C54.9257 29.8049 54.952 30.5172 54.952 36.5208C54.952 42.5243 54.9257 43.2283 54.8206 45.6015C54.7238 47.7991 54.3545 48.9857 54.0475 49.7768C53.291 51.7379 51.7351 53.2938 49.7754 54.0489C48.9843 54.3559 47.7894 54.7252 45.6001 54.822C43.2269 54.9271 42.5147 54.9533 36.5111 54.9533L36.5124 54.9547Z" fill="white"/>
<path d="M36.5041 24.9421C30.1216 24.9421 24.9437 30.1201 24.9437 36.5026C24.9437 42.8852 30.1216 48.0631 36.5041 48.0631C42.8867 48.0631 48.0632 42.8852 48.0632 36.5026C48.0632 30.1201 42.8853 24.9421 36.5041 24.9421ZM36.5041 43.9999C32.3635 43.9999 29.0055 40.6419 29.0055 36.5012C29.0055 32.3605 32.3635 29.0026 36.5041 29.0026C40.6448 29.0026 44.0028 32.3605 44.0028 36.5012C44.0028 40.6419 40.6448 43.9999 36.5041 43.9999Z" fill="white"/>
<path d="M51.2193 24.4859C51.2193 22.995 50.0105 21.7877 48.5196 21.7877C47.0288 21.7877 45.8214 22.9964 45.8214 24.4859C45.8214 25.9754 47.0302 27.1841 48.5196 27.1841C50.0091 27.1841 51.2193 25.9768 51.2193 24.4859Z" fill="white"/>
</g>
</g>
<defs>
<filter id="filter0_i_208_54" x="14" y="14" width="45" height="45.5" filterUnits="userSpaceOnUse" color-interpolation-filters="sRGB">
<feFlood flood-opacity="0" result="BackgroundImageFix"/>
<feBlend mode="normal" in="SourceGraphic" in2="BackgroundImageFix" result="shape"/>
<feColorMatrix in="SourceAlpha" type="matrix" values="0 0 0 0 0 0 0 0 0 0 0 0 0 0 0 0 0 0 127 0" result="hardAlpha"/>
<feOffset dy="0.5"/>
<feGaussianBlur stdDeviation="1.25"/>
<feComposite in2="hardAlpha" operator="arithmetic" k2="-1" k3="1"/>
<feColorMatrix type="matrix" values="0 0 0 0 0 0 0 0 0 0 0 0 0 0 0 0 0 0 0.2 0"/>
<feBlend mode="normal" in2="shape" result="effect1_innerShadow_208_54"/>
</filter>
<filter id="filter1_i_208_54" x="14" y="14" width="44.9198" height="45.5" filterUnits="userSpaceOnUse" color-interpolation-filters="sRGB">
<feFlood flood-opacity="0" result="BackgroundImageFix"/>
<feBlend mode="normal" in="SourceGraphic" in2="BackgroundImageFix" result="shape"/>
<feColorMatrix in="SourceAlpha" type="matrix" values="0 0 0 0 0 0 0 0 0 0 0 0 0 0 0 0 0 0 127 0" result="hardAlpha"/>
<feOffset dy="0.5"/>
<feGaussianBlur stdDeviation="1.25"/>
<feComposite in2="hardAlpha" operator="arithmetic" k2="-1" k3="1"/>
<feColorMatrix type="matrix" values="0 0 0 0 0 0 0 0 0 0 0 0 0 0 0 0 0 0 0.1 0"/>
<feBlend mode="normal" in2="shape" result="effect1_innerShadow_208_54"/>
</filter>
<linearGradient id="paint0_linear_208_54" x1="36.8996" y1="-2.29962" x2="36.8996" y2="77.6666" gradientUnits="userSpaceOnUse">
<stop stop-color="#FCA759"/>
<stop offset="0.19" stop-color="#E82D56"/>
<stop offset="0.74" stop-color="#A22DB4"/>
<stop offset="1" stop-color="#643DCE"/>
</linearGradient>
<clipPath id="clip0_208_54">
<rect width="45" height="45" fill="white" transform="translate(14 14)"/>
</clipPath>
</defs>
</svg>
