<svg width="74" height="74" viewBox="0 0 74 74" fill="none" xmlns="http://www.w3.org/2000/svg">
<rect y="-0.00012207" width="73.7991" height="73.7991" rx="30" fill="url(#paint0_linear_208_116)"/>
<g filter="url(#filter0_i_208_116)">
<path d="M39.5705 36.0813C39.5705 42.1968 34.5298 47.1625 28.2853 47.1625C22.0408 47.1625 17 42.1968 17 36.0813C17 29.9658 22.0408 25 28.2853 25C34.5298 25 39.5705 29.9658 39.5705 36.0813ZM51.9342 36.0813C51.9342 41.8298 49.4013 46.5021 46.2915 46.5021C43.1818 46.5021 40.6489 41.8298 40.6489 36.0813C40.6489 30.3327 43.1818 25.6605 46.2915 25.6605C49.4013 25.6605 51.9342 30.3082 51.9342 36.0813ZM57 36.0813C57 41.2427 56.1223 45.4257 55.0188 45.4257C53.9154 45.4257 53.0376 41.2427 53.0376 36.0813C53.0376 30.9198 53.9154 26.7368 55.0188 26.7368C56.1223 26.7368 57 30.9198 57 36.0813Z" fill="white"/>
</g>
<defs>
<filter id="filter0_i_208_116" x="14" y="14" width="45" height="45.5" filterUnits="userSpaceOnUse" color-interpolation-filters="sRGB">
<feFlood flood-opacity="0" result="BackgroundImageFix"/>
<feBlend mode="normal" in="SourceGraphic" in2="BackgroundImageFix" result="shape"/>
<feColorMatrix in="SourceAlpha" type="matrix" values="0 0 0 0 0 0 0 0 0 0 0 0 0 0 0 0 0 0 127 0" result="hardAlpha"/>
<feOffset dy="0.5"/>
<feGaussianBlur stdDeviation="1.25"/>
<feComposite in2="hardAlpha" operator="arithmetic" k2="-1" k3="1"/>
<feColorMatrix type="matrix" values="0 0 0 0 0 0 0 0 0 0 0 0 0 0 0 0 0 0 0.1 0"/>
<feBlend mode="normal" in2="shape" result="effect1_innerShadow_208_116"/>
</filter>
<linearGradient id="paint0_linear_208_116" x1="42" y1="75.9999" x2="7.5" y2="-0.000123651" gradientUnits="userSpaceOnUse">
<stop offset="0.0729167"/>
<stop offset="0.927083" stop-color="#393A3D"/>
</linearGradient>
</defs>
</svg>
